HIERARCHY
ROOT Hips
{
	OFFSET 0.000000 0.000000 0.000000
	CHANNELS 6 Xposition Yposition Zposition Zrotation Yrotation Xrotation 
	JOINT LowerBack
	{
		OFFSET 0.000000 0.000000 0.000000
		CHANNELS 3 Zrotation Yrotation Xrotation
		JOINT Spine
		{
			OFFSET 0.028270 2.035590 -0.193380
			CHANNELS 3 Zrotation Yrotation Xrotation
			JOINT Spine1
			{
				OFFSET 0.056720 2.048850 -0.042750
				CHANNELS 3 Zrotation Yrotation Xrotation
				JOINT Neck
				{
					OFFSET 0.000000 0.000000 0.000000
					CHANNELS 3 Zrotation Yrotation Xrotation
					JOINT Neck1
					{
						OFFSET -0.054170 1.746240 0.172020
						CHANNELS 3 Zrotation Yrotation Xrotation
						JOINT Head
						{
							OFFSET 0.104070 1.761360 -0.123970
							CHANNELS 3 Zrotation Yrotation Xrotation
							End Site
							{
								OFFSET 0.000000 0.000000 0.000000
							}
						}
					}
				}
				JOINT LeftShoulder
				{
					OFFSET 0.000000 0.000000 0.000000
					CHANNELS 3 Zrotation Yrotation Xrotation
					JOINT LeftArm
					{
						OFFSET 3.362410 1.200890 -0.311210
						CHANNELS 3 Zrotation Yrotation Xrotation
						JOINT LeftForeArm
						{
							OFFSET 4.983000 -0.000000 -0.000000
							CHANNELS 3 Zrotation Yrotation Xrotation
							JOINT LeftHand
							{
								OFFSET 3.483560 -0.000000 -0.000000
								CHANNELS 3 Zrotation Yrotation Xrotation
								JOINT LeftFingerBase
								{
									OFFSET 0.000000 0.000000 0.000000
									CHANNELS 3 Zrotation Yrotation Xrotation
									JOINT LeftHandIndex1
									{
										OFFSET 0.715260 -0.000000 -0.000000
										CHANNELS 3 Zrotation Yrotation Xrotation
										End Site
										{
											OFFSET 0.000000 0.000000 0.000000
										}
									}
								}
								JOINT LThumb
								{
									OFFSET 0.000000 0.000000 0.000000
									CHANNELS 3 Zrotation Yrotation Xrotation
									End Site
									{
										OFFSET 0.000000 0.000000 0.000000
									}
								}
							}
						}
					}
				}
				JOINT RightShoulder
				{
					OFFSET 0.000000 0.000000 0.000000
					CHANNELS 3 Zrotation Yrotation Xrotation
					JOINT RightArm
					{
						OFFSET -3.136600 1.374050 -0.404650
						CHANNELS 3 Zrotation Yrotation Xrotation
						JOINT RightForeArm
						{
							OFFSET -5.241900 -0.000000 -0.000000
							CHANNELS 3 Zrotation Yrotation Xrotation
							JOINT RightHand
							{
								OFFSET -3.444170 -0.000000 -0.000000
								CHANNELS 3 Zrotation Yrotation Xrotation
								JOINT RightFingerBase
								{
									OFFSET 0.000000 0.000000 0.000000
									CHANNELS 3 Zrotation Yrotation Xrotation
									JOINT RightHandIndex1
									{
										OFFSET -0.622530 -0.000000 -0.000000
										CHANNELS 3 Zrotation Yrotation Xrotation
										End Site
										{
											OFFSET 0.000000 0.000000 0.000000
										}
									}
								}
								JOINT RThumb
								{
									OFFSET 0.000000 0.000000 0.000000
									CHANNELS 3 Zrotation Yrotation Xrotation
									End Site
									{
										OFFSET 0.000000 0.000000 0.000000
									}
								}
							}
						}
					}
				}
			}
		}
	}
}
}
MOTION
Frames: 15
Frame Time: 0.008333
17.193828 16.773428 2.604032 103.148484 -88.108263 -51.663555 1.521248 -2.277913 -5.424788 -0.399172 -2.601289 -3.946486 -5.863267 -2.747310 1.454314 10.884916 -14.598030 -12.401410 -2.038463 -0.079903 -1.633737 0.000000 0.000000 0.000000 -2.059091 11.631004 2.214304 -62.056916 37.777463 14.563909 -2.087552 -50.320578 0.012639 1.717652 -6.200349 -0.098921 -0.112567 0.029047 -0.000000 0.000000 0.000000 0.000000 0.000000 0.000000 0.000000 14.613825 -12.374958 2.986370 64.771190 -26.769603 -5.406094 2.757889 30.936778 0.012578 -6.076439 7.477928 -0.415310 0.183707 -0.117209 -0.000000 0.000000 0.000000 0.000000 0.000000 0.000000 0.000000 
17.178947 16.683828 2.600716 105.018237 -87.972164 -52.343511 1.452839 -2.290948 -5.617720 -0.430409 -2.620061 -4.010778 -5.894749 -2.771148 1.411477 11.097857 -14.620428 -12.644060 -2.078660 -0.078906 -1.727020 0.000000 0.000000 0.000000 -2.279561 11.783609 2.306840 -62.319545 37.675748 13.550997 -2.037979 -50.780290 0.012287 1.794411 -6.241903 -0.103726 -0.110795 0.035300 -0.000000 0.000000 0.000000 0.000000 0.000000 0.000000 0.000000 15.088510 -12.320671 3.052469 64.785788 -26.811055 -5.544673 2.689350 31.540917 0.011832 -6.128722 7.528463 -0.421809 0.181979 -0.122682 -0.000000 0.000000 0.000000 0.000000 0.000000 0.000000 0.000000 
17.163627 16.579933 2.597464 106.061639 -87.828900 -52.170828 1.393194 -2.305174 -5.863474 -0.459366 -2.642952 -4.086957 -5.926312 -2.799714 1.373045 11.300160 -14.608495 -12.866943 -2.124993 -0.078874 -1.814099 0.000000 0.000000 0.000000 -2.515750 11.904847 2.398237 -62.609652 37.481348 12.490054 -1.994480 -51.118896 0.011885 1.810464 -6.283541 -0.105333 -0.108323 0.041260 -0.000000 0.000000 0.000000 0.000000 0.000000 0.000000 0.000000 15.561914 -12.243526 3.114681 64.835884 -26.766300 -5.769087 2.624978 32.033104 0.011123 -6.161120 7.596820 -0.427909 0.180040 -0.128330 -0.000000 0.000000 0.000000 0.000000 0.000000 0.000000 0.000000 
17.147355 16.460807 2.594300 106.273833 -87.673640 -51.141175 1.339068 -2.322240 -6.174021 -0.484612 -2.671599 -4.175466 -5.950903 -2.834569 1.347865 11.480728 -14.576713 -13.070081 -2.171475 -0.079270 -1.894338 0.000000 0.000000 0.000000 -2.738088 12.011625 2.488491 -62.940392 37.164156 11.407537 -1.958508 -51.299951 0.011498 1.788512 -6.339222 -0.104943 -0.105559 0.047173 -0.000000 0.000000 0.000000 0.000000 0.000000 0.000000 0.000000 16.001256 -12.161806 3.171585 64.926861 -26.617473 -6.054285 2.565280 32.381009 0.010467 -6.185882 7.683166 -0.434611 0.178041 -0.133990 -0.000000 0.000000 0.000000 0.000000 0.000000 0.000000 0.000000 
17.129931 16.325910 2.591429 105.666266 -87.505139 -49.271185 1.294626 -2.342742 -6.557365 -0.504230 -2.707123 -4.278330 -5.966605 -2.876880 1.335660 11.630014 -14.521518 -13.248503 -2.216573 -0.080056 -1.965632 0.000000 0.000000 0.000000 -2.943191 12.094491 2.576581 -63.312130 36.745336 10.299994 -1.929747 -51.337476 0.011157 1.747170 -6.411390 -0.103751 -0.102788 0.053098 -0.000000 0.000000 0.000000 0.000000 0.000000 0.000000 0.000000 16.387870 -12.073137 3.223720 65.067863 -26.379150 -6.417870 2.511072 32.582173 0.009864 -6.196026 7.780786 -0.441013 0.175964 -0.139574 0.000000 0.000000 0.000000 0.000000 0.000000 0.000000 0.000000 
17.110969 16.175071 2.589012 104.319083 -87.321763 -46.650048 1.264466 -2.366686 -7.016063 -0.517146 -2.750074 -4.397556 -5.974993 -2.927273 1.331341 11.743084 -14.431911 -13.397232 -2.261831 -0.081477 -2.026013 0.000000 0.000000 0.000000 -3.139650 12.134521 2.661381 -63.716733 36.267667 9.153095 -1.906482 -51.273289 0.010863 1.706528 -6.495019 -0.102760 -0.100223 0.058962 -0.000000 0.000000 0.000000 0.000000 0.000000 0.000000 0.000000 16.718569 -11.965264 3.272401 65.263724 -26.082134 -6.887578 2.462734 32.658334 0.009309 -6.180325 7.878832 -0.445517 0.173735 -0.145025 0.000000 0.000000 0.000000 0.000000 0.000000 0.000000 0.000000 
17.090128 16.008231 2.587177 102.374445 -87.118839 -43.427417 1.249277 -2.394737 -7.547344 -0.522189 -2.801044 -4.530860 -5.973231 -2.986124 1.340450 11.819693 -14.330608 -13.525608 -2.303553 -0.083036 -2.078064 0.000000 0.000000 0.000000 -3.314406 12.157731 2.742754 -64.146725 35.702410 8.002299 -1.887660 -51.107299 0.010627 1.699909 -6.592379 -0.103966 -0.098237 0.064901 -0.000000 0.000000 0.000000 0.000000 0.000000 0.000000 0.000000 16.984389 -11.860128 3.316735 65.498774 -25.708331 -7.418323 2.419386 32.618228 0.008772 -6.157395 7.967959 -0.449023 0.171533 -0.150192 0.000000 0.000000 0.000000 0.000000 0.000000 0.000000 0.000000 
17.067639 15.826060 2.586136 99.980586 -86.895563 -39.768214 1.253331 -2.426544 -8.140584 -0.518846 -2.859863 -4.676362 -5.964073 -3.053146 1.359903 11.864536 -14.222218 -13.639051 -2.343093 -0.084773 -2.123396 0.000000 0.000000 0.000000 -3.476229 12.166323 2.819998 -64.585293 35.060969 6.858294 -1.871037 -50.874800 0.010414 1.751555 -6.695376 -0.108567 -0.096989 0.070810 -0.000000 0.000000 0.000000 0.000000 0.000000 0.000000 0.000000 17.196376 -11.758835 3.357257 65.758178 -25.266722 -7.996851 2.380352 32.497767 0.008227 -6.133278 8.037633 -0.451229 0.169415 -0.155008 0.000000 0.000000 0.000000 0.000000 0.000000 0.000000 0.000000 
17.043247 15.629650 2.586027 97.297564 -86.652635 -35.847786 1.280310 -2.461171 -8.780013 -0.507068 -2.925655 -4.830574 -5.950757 -3.127283 1.387691 11.887002 -14.116655 -13.746687 -2.381982 -0.086680 -2.165048 0.000000 0.000000 0.000000 -3.633876 12.171636 2.892654 -65.012872 34.337990 5.743061 -1.854450 -50.600266 0.010186 1.883377 -6.794934 -0.118166 -0.096562 0.076567 -0.000000 0.000000 0.000000 0.000000 0.000000 0.000000 0.000000 17.373401 -11.667198 3.393938 66.018159 -24.755122 -8.590531 2.344481 32.334247 0.007632 -6.122057 8.080297 -0.452935 0.167495 -0.159434 0.000000 0.000000 0.000000 0.000000 0.000000 0.000000 0.000000 
17.017115 15.420692 2.586947 94.472639 -86.393390 -31.832744 1.333622 -2.497147 -9.445562 -0.487211 -2.996948 -4.989042 -5.937373 -3.206858 1.421508 11.899757 -14.023628 -13.858834 -2.422364 -0.088783 -2.206592 0.000000 0.000000 0.000000 -3.798074 12.186014 2.960336 -65.408530 33.519526 4.682723 -1.836257 -50.298402 0.009888 2.109897 -6.882131 -0.133660 -0.096933 0.081998 -0.000000 0.000000 0.000000 0.000000 0.000000 0.000000 0.000000 17.540009 -11.590580 3.426599 66.251498 -24.165167 -9.158426 2.310732 32.161761 0.006959 -6.140601 8.093473 -0.455042 0.165904 -0.163452 0.000000 0.000000 0.000000 0.000000 0.000000 0.000000 0.000000 
16.989126 15.201334 2.588988 91.630366 -86.123615 -27.864159 1.415354 -2.532194 -10.115521 -0.460724 -3.071505 -5.147770 -5.930160 -3.289494 1.456039 11.917760 -13.940861 -13.982436 -2.469123 -0.091421 -2.250817 0.000000 0.000000 0.000000 -3.986212 12.211455 3.022893 -65.751531 32.599895 3.692520 -1.814901 -49.980602 0.009458 2.437289 -6.945039 -0.155054 -0.097922 0.086828 -0.000000 0.000000 0.000000 0.000000 0.000000 0.000000 0.000000 17.731621 -11.521998 3.455304 66.433142 -23.496389 -9.678645 2.278153 32.015403 0.006180 -6.196286 8.078495 -0.458448 0.164661 -0.167130 0.000000 0.000000 0.000000 0.000000 0.000000 0.000000 0.000000 
16.959612 14.974229 2.592202 88.858396 -85.850963 -24.045904 1.525953 -2.563854 -10.769145 -0.429009 -3.146705 -5.302186 -5.933339 -3.372412 1.489268 11.954806 -13.871321 -14.125592 -2.525228 -0.094736 -2.300877 0.000000 0.000000 0.000000 -4.209393 12.258075 3.080182 -66.024241 31.549190 2.799439 -1.790424 -49.629290 0.008857 2.861189 -6.977674 -0.182146 -0.099286 0.090844 -0.000000 0.000000 0.000000 0.000000 0.000000 0.000000 0.000000 17.976022 -11.461464 3.479590 66.537699 -22.728722 -10.110152 2.246081 31.904175 0.005283 -6.305808 8.045316 -0.464552 0.163872 -0.170520 0.000000 0.000000 0.000000 0.000000 0.000000 0.000000 0.000000 
16.928065 14.742179 2.596556 86.220226 -85.582855 -20.451459 1.663996 -2.589750 -11.388957 -0.394165 -3.219962 -5.449094 -5.951590 -3.452963 1.517376 12.022835 -13.805372 -14.290853 -2.595190 -0.099104 -2.358329 0.000000 0.000000 0.000000 -4.481864 12.324487 3.132181 -66.211714 30.345572 2.018007 -1.763406 -49.217892 0.008061 3.367160 -6.974572 -0.213542 -0.100667 0.093806 -0.000000 0.000000 0.000000 0.000000 0.000000 0.000000 0.000000 18.302540 -11.397614 3.499355 66.546742 -21.848520 -10.437956 2.214196 31.824348 0.004267 -6.474092 8.006737 -0.474654 0.163513 -0.173725 0.000000 0.000000 0.000000 0.000000 0.000000 0.000000 0.000000 
16.895061 14.508640 2.601988 83.757195 -85.327211 -17.136943 1.825551 -2.607639 -11.952979 -0.358688 -3.288083 -5.584270 -5.987995 -3.527909 1.536709 12.129966 -13.731661 -14.478678 -2.682316 -0.104810 -2.424230 0.000000 0.000000 0.000000 -4.815934 12.403155 3.179081 -66.304367 28.959890 1.355385 -1.735415 -48.706980 0.007077 3.922806 -6.934174 -0.246541 -0.101557 0.095566 -0.000000 0.000000 0.000000 0.000000 0.000000 0.000000 0.000000 18.731256 -11.318798 3.515827 66.452494 -20.827980 -10.663827 2.182450 31.744310 0.003155 -6.696090 7.981421 -0.489255 0.163433 -0.176882 0.000000 0.000000 0.000000 0.000000 0.000000 0.000000 0.000000 
16.859332 14.276152 2.608433 81.462364 -85.084545 -14.088477 2.005633 -2.617066 -12.473102 -0.325330 -3.351215 -5.713046 -6.047959 -3.597693 1.538611 12.276170 -13.593530 -14.671058 -2.796745 -0.113154 -2.493219 0.000000 0.000000 0.000000 -5.223170 12.463800 3.221281 -66.291965 27.411134 0.806888 -1.706881 -48.064906 0.005918 4.539279 -6.853239 -0.281247 -0.101809 0.095762 -0.000000 0.000000 0.000000 0.000000 0.000000 0.000000 0.000000 19.288631 -11.168412 3.527711 66.253296 -19.717043 -10.827889 2.151040 31.662285 0.001942 -6.976838 7.977174 -0.509255 0.163599 -0.179989 0.000000 0.000000 0.000000 0.000000 0.000000 0.000000 0.000000 
